# xmcd
#
# Track frame offsets:
# 150
# 13745
# 26365
# 39739
# 53914
# 64657
# 78915
# 93432
# 105647
# 118397
# 131260
# 141207
#
# Disc length: 2085 seconds
#
#
# Revision: 2
# Processed by: cddbd v1.4PL0 Copyright (c) Steve Scherf et al.
# Submitted via: FreeRIP 2.00 
#
DISCID=9d08230c
DTITLE=Lee, Peggy - All Time Greatest Hits Disk 2
DYEAR=1999
DGENRE=Easy Listening
TTITLE0=Baby, Don't Be Mad At Me
TTITLE1=Caramba! It's The Samba
TTITLE2=Manana (It's Soon Enough For Me)
TTITLE3=Don't Smoke In Bed
TTITLE4=Similau
TTITLE5=Bali Ha'i
TTITLE6=I'm Gonna Wash That Man Right Out Of My Hair
TTITLE7=Riders In The Sky (A Cowboy Legend)
TTITLE8=The Old Master Painter
TTITLE9=Lover Come Back To Me!
TTITLE10=(When I Dance With You) I Get Ideas
TTITLE11=Fever
EXTD=
EXTT0=
EXTT1=
EXTT2=
EXTT3=
EXTT4=
EXTT5=
EXTT6=
EXTT7=
EXTT8=
EXTT9=
EXTT10=
EXTT11=
PLAYORDER=
